<svg width="44" height="44" viewBox="0 0 44 44" fill="none" xmlns="http://www.w3.org/2000/svg">
<path d="M37.8985 11.6918V6.1875C37.8985 5.42695 37.284 4.8125 36.5235 4.8125H7.47659C6.71604 4.8125 6.10159 5.42695 6.10159 6.1875V11.6918C5.38401 11.7348 4.81253 12.332 4.81253 13.0625V18.7215C4.80977 19.7615 5.02036 20.7911 5.43128 21.7465C5.61604 22.1848 5.84378 22.5973 6.10159 22.9883V37.8125C6.10159 38.5687 6.71604 39.1875 7.47659 39.1875H36.5235C37.284 39.1875 37.8985 38.573 37.8985 37.8125V22.9883C38.1603 22.5963 38.3848 22.1805 38.5688 21.7465C38.977 20.7883 39.1875 19.7699 39.1875 18.7215V13.0625C39.1875 12.332 38.616 11.7348 37.8985 11.6918ZM9.19534 7.90625H34.8047V11.6875H9.19534V7.90625ZM24.75 36.098H19.25V31.625H24.75V36.098ZM34.8047 36.098H27.5V30.25C27.5 29.4895 26.8856 28.875 26.125 28.875H17.875C17.1145 28.875 16.5 29.4895 16.5 30.25V36.098H9.19534V25.691C9.31995 25.7512 9.44885 25.8113 9.58206 25.8629C10.5403 26.2668 11.5586 26.4688 12.6071 26.4688C13.6555 26.4688 14.6696 26.2668 15.6321 25.8629C16.225 25.6137 16.7836 25.2957 17.2949 24.9133C17.3035 24.909 17.3121 24.909 17.3207 24.9133C17.8336 25.2973 18.3922 25.6163 18.9836 25.8629C19.9418 26.2668 20.9602 26.4688 22.0086 26.4688C23.0571 26.4688 24.0711 26.2668 25.0336 25.8629C25.6266 25.6137 26.1852 25.2957 26.6965 24.9133C26.7051 24.909 26.7137 24.909 26.7223 24.9133C27.2352 25.2973 27.7938 25.6163 28.3852 25.8629C29.3434 26.2668 30.3617 26.4688 31.4102 26.4688C32.4586 26.4688 33.4727 26.2668 34.4352 25.8629C34.5641 25.807 34.693 25.7512 34.8219 25.691V36.098H34.8047ZM36.0938 18.7215C36.0938 21.291 33.9883 23.375 31.3973 23.375C29.6442 23.375 28.1145 22.4254 27.3067 21.016C27.1821 20.8012 26.9586 20.668 26.7094 20.668H26.6836C26.4387 20.668 26.211 20.8012 26.0864 21.016C25.6741 21.735 25.0789 22.3319 24.3611 22.7463C23.6434 23.1606 22.8288 23.3775 22 23.375C20.2512 23.375 18.7258 22.4297 17.918 21.0246C17.7891 20.8055 17.5571 20.668 17.3035 20.668C17.05 20.668 16.8137 20.8055 16.6891 21.0246C16.2744 21.7408 15.6784 22.3351 14.9611 22.7477C14.2437 23.1603 13.4303 23.3767 12.6028 23.375C10.0117 23.375 7.90628 21.291 7.90628 18.7215V14.8027C7.90628 14.7898 7.91487 14.7812 7.92776 14.7812H36.0723C36.0852 14.7812 36.0938 14.7898 36.0938 14.8027V18.7215Z" fill="#FFAF06"/>
</svg>
