<svg width="20" height="20" viewBox="0 0 20 20" fill="none" xmlns="http://www.w3.org/2000/svg">
<path fill-rule="evenodd" clip-rule="evenodd" d="M2.70898 8.6806C2.70898 4.68572 5.97976 1.45837 10.0007 1.45837C14.0215 1.45837 17.2923 4.68572 17.2923 8.6806C17.2923 11.1652 15.8434 13.6174 14.3078 15.4024C13.5307 16.3058 12.7059 17.0684 11.9784 17.6107C11.6152 17.8815 11.2661 18.1049 10.951 18.2636C10.6557 18.4123 10.3184 18.5417 10.0007 18.5417C9.68295 18.5417 9.34564 18.4123 9.05026 18.2636C8.73518 18.1049 8.38612 17.8815 8.02294 17.6107C7.29541 17.0684 6.47061 16.3058 5.69352 15.4024C4.15792 13.6174 2.70898 11.1652 2.70898 8.6806ZM10.0003 10.8334C8.61961 10.8334 7.50033 9.71407 7.50033 8.33335C7.50033 6.95264 8.61961 5.83335 10.0003 5.83335C11.381 5.83335 12.5003 6.95264 12.5003 8.33335C12.5003 9.71407 11.381 10.8334 10.0003 10.8334Z" fill="#FFAF06"/>
</svg>
