<svg width="13" height="13" viewBox="0 0 13 13" fill="none" xmlns="http://www.w3.org/2000/svg">
<path d="M12.5759 6.15689C12.8489 6.50709 13 6.93617 13 7.38259C13 8.09088 12.5921 8.76131 11.9356 9.13517C11.7666 9.2314 11.5742 9.28205 11.3783 9.28187H7.4815L7.579 11.2206C7.60175 11.6891 7.43113 12.134 7.09963 12.4731C6.93694 12.6403 6.74067 12.7733 6.52294 12.8639C6.30521 12.9545 6.07065 13.0008 5.83375 13C4.98875 13 4.24125 12.4479 4.017 11.6576L2.62112 6.7516H0.52C0.232375 6.7516 0 6.52602 0 6.24681V0.504792C0 0.225579 0.232375 0 0.52 0H10.2911C10.4406 0 10.5869 0.0283947 10.7217 0.0851841C11.4952 0.405412 11.9941 1.13894 11.9941 1.95292C11.9941 2.15168 11.9649 2.34729 11.9064 2.53658C12.1794 2.88678 12.3305 3.31586 12.3305 3.76228C12.3305 3.96104 12.3012 4.15665 12.2428 4.34595C12.5157 4.69615 12.6669 5.12522 12.6669 5.57165C12.6636 5.77041 12.6344 5.9676 12.5759 6.15689ZM1.17 1.13578V5.61582H2.48625V1.13578H1.17ZM11.5115 6.70428L11.1556 6.40456L11.3815 6.00388C11.4559 5.87189 11.4945 5.72369 11.4936 5.57323C11.4936 5.31294 11.3766 5.06528 11.1751 4.89491L10.8192 4.59519L11.0451 4.19451C11.1195 4.06252 11.1581 3.91432 11.1572 3.76386C11.1572 3.50358 11.0402 3.25591 10.8387 3.08554L10.4829 2.78582L10.7087 2.38515C10.7832 2.25316 10.8218 2.10496 10.8209 1.95449C10.8209 1.60114 10.6064 1.28249 10.2749 1.13736H3.52625V5.6663L5.14312 11.3531C5.18482 11.4989 5.27432 11.6275 5.39806 11.7194C5.5218 11.8113 5.67305 11.8616 5.82888 11.8626C5.95237 11.8626 6.07425 11.8279 6.17175 11.7569C6.33262 11.6402 6.41875 11.4635 6.409 11.2758L6.253 8.14609H11.362C11.6512 7.97415 11.83 7.68389 11.83 7.38259C11.83 7.12231 11.713 6.87622 11.5115 6.70428Z" fill="#121212"/>
</svg>
