<svg width="13" height="14" viewBox="0 0 13 14" fill="none" xmlns="http://www.w3.org/2000/svg">
<path d="M12.5759 7.04926C12.8489 6.68851 13 6.24651 13 5.78664C13 5.05701 12.5921 4.36639 11.9356 3.98126C11.7666 3.88213 11.5742 3.82996 11.3783 3.83014H7.4815L7.579 1.83301C7.60175 1.35039 7.43113 0.892137 7.09963 0.542762C6.93694 0.370558 6.74067 0.233546 6.52294 0.140193C6.30521 0.0468404 6.07065 -0.000869397 5.83375 1.19928e-05C4.98875 1.19928e-05 4.24125 0.568762 4.017 1.38289L2.62112 6.43664H0.52C0.232375 6.43664 0 6.66901 0 6.95664V12.8716C0 13.1593 0.232375 13.3916 0.52 13.3916H10.2911C10.4406 13.3916 10.5869 13.3624 10.7217 13.3039C11.4952 12.974 11.9941 12.2184 11.9941 11.3799C11.9941 11.1751 11.9649 10.9736 11.9064 10.7786C12.1794 10.4179 12.3305 9.97589 12.3305 9.51601C12.3305 9.31126 12.3012 9.10976 12.2428 8.91476C12.5157 8.55401 12.6669 8.11201 12.6669 7.65214C12.6636 7.44739 12.6344 7.24426 12.5759 7.04926ZM1.17 12.2216V7.60664H2.48625V12.2216H1.17ZM11.5115 6.48539L11.1556 6.79414L11.3815 7.20689C11.4559 7.34285 11.4945 7.49552 11.4936 7.65051C11.4936 7.91864 11.3766 8.17376 11.1751 8.34926L10.8192 8.65801L11.0451 9.07076C11.1195 9.20673 11.1581 9.35939 11.1572 9.51439C11.1572 9.78251 11.0402 10.0376 10.8387 10.2131L10.4829 10.5219L10.7087 10.9346C10.7832 11.0706 10.8218 11.2233 10.8209 11.3783C10.8209 11.7423 10.6064 12.0705 10.2749 12.22H3.52625V7.55464L5.14312 1.69651C5.18482 1.54636 5.27432 1.41389 5.39806 1.31918C5.5218 1.22447 5.67305 1.17267 5.82888 1.17164C5.95237 1.17164 6.07425 1.20739 6.17175 1.28051C6.33262 1.40076 6.41875 1.58276 6.409 1.77614L6.253 5.00014H11.362C11.6512 5.17726 11.83 5.47626 11.83 5.78664C11.83 6.05476 11.713 6.30826 11.5115 6.48539Z" fill="#121212"/>
</svg>
