<svg width="12" height="12" viewBox="0 0 12 12" fill="none" xmlns="http://www.w3.org/2000/svg">
<path d="M11.6448 3.82673C11.7868 3.94729 11.8923 4.1044 11.9496 4.28067C12.0079 4.45666 12.0158 4.64518 11.9725 4.82535C11.9292 5.00552 11.8364 5.17032 11.7044 5.3015L9.63691 7.3654L10.0844 10.2385C10.113 10.4215 10.09 10.6087 10.0182 10.7796C9.9463 10.9505 9.82827 11.0985 9.67702 11.2073C9.52578 11.3161 9.34718 11.3815 9.16083 11.3964C8.97449 11.4113 8.78761 11.375 8.62071 11.2916L5.99964 9.98222L3.37864 11.2916C3.21176 11.3752 3.02483 11.4116 2.83842 11.3968C2.652 11.382 2.47332 11.3166 2.32202 11.2077C2.17072 11.0988 2.05267 10.9508 1.98085 10.7798C1.90903 10.6088 1.88623 10.4215 1.91494 10.2385L2.36244 7.3654L0.294941 5.3015C0.163343 5.17006 0.0708486 5.00527 0.0276057 4.8252C-0.0156372 4.64513 -0.00795716 4.45675 0.0498032 4.28072C0.107563 4.10469 0.213172 3.94781 0.355041 3.82731C0.496911 3.7068 0.669558 3.62732 0.854041 3.59759L3.75172 3.13125L5.09502 0.546335C5.18058 0.381775 5.31027 0.243734 5.46984 0.147359C5.62942 0.0509846 5.81273 0 5.99964 0C6.18655 0 6.36986 0.0509846 6.52943 0.147359C6.68901 0.243734 6.8187 0.381775 6.90426 0.546335L8.24756 3.13125L11.1453 3.59759C11.33 3.62687 11.5028 3.70617 11.6448 3.82673Z" fill="#FFC13F"/>
</svg>
