<svg width="100" height="25" viewBox="0 0 100 25" fill="none" xmlns="http://www.w3.org/2000/svg">
<path fill-rule="evenodd" clip-rule="evenodd" d="M22.5289 7.99906C22.5285 8.11876 22.4883 8.2346 22.4152 8.32682C22.3421 8.41904 22.2407 8.48195 22.1282 8.50481V11.115C22.1282 11.115 26.024 22.3462 26.2522 22.8752C26.2943 23.0665 26.2985 23.2647 26.2647 23.4577C26.2309 23.6507 26.1597 23.8345 26.0555 23.9977C25.9513 24.161 25.8162 24.3003 25.6587 24.4072C25.5011 24.5141 25.3243 24.5862 25.1391 24.6192H14.498C14.2729 24.6006 14.0558 24.5235 13.8666 24.3948C13.6773 24.2661 13.5219 24.09 13.4146 23.8825C13.3072 23.675 13.2513 23.4427 13.252 23.2069C13.2526 22.971 13.3098 22.7391 13.4183 22.5322C13.6187 22.1486 17.2473 11.487 17.3753 11.0975V8.50481C17.2478 8.48704 17.1319 8.41811 17.0521 8.31262C16.9724 8.20712 16.935 8.07335 16.9481 7.93963C16.9611 7.8059 17.0234 7.68272 17.1219 7.59616C17.2203 7.5096 17.3471 7.46645 17.4755 7.47586H22.0336C22.0991 7.47586 22.164 7.48943 22.2245 7.51579C22.2849 7.54216 22.3398 7.58079 22.3858 7.62945C22.4319 7.67811 22.4683 7.73583 22.4928 7.79928C22.5174 7.86272 22.5297 7.93063 22.5289 7.99906ZM21.5439 11.3301V8.91174H17.9597V11.3301C17.9597 11.3301 14.2253 22.6194 14.0361 22.9566C13.9991 23.0801 13.9913 23.2112 14.0133 23.3386C14.0353 23.4659 14.0865 23.5859 14.1625 23.6881C14.2385 23.7903 14.337 23.8718 14.4497 23.9256C14.5624 23.9795 14.6859 24.004 14.8097 23.9972H24.6271C25.3339 23.9972 25.6846 23.4449 25.4675 22.9566C25.2504 22.4683 21.5439 11.3301 21.5439 11.3301ZM20.5922 14.3937C20.5913 14.455 20.5673 14.5135 20.5254 14.5564C20.5051 14.5782 20.4809 14.5956 20.4542 14.6074C20.4274 14.6192 20.3986 14.6253 20.3695 14.6253C20.3405 14.6253 20.3117 14.6192 20.2849 14.6074C20.2582 14.5956 20.2339 14.5782 20.2137 14.5564C20.1718 14.5135 20.1478 14.455 20.1469 14.3937C20.1703 14.2784 20.2199 14.1707 20.2916 14.0797C20.3163 14.0486 20.3386 14.0156 20.3584 13.9809C20.3782 14.0156 20.4006 14.0486 20.4252 14.0797C20.5049 14.1683 20.5623 14.2762 20.5922 14.3937ZM20.0634 13.2019C20.0734 13.2598 20.0636 13.3195 20.0356 13.3705C19.9934 13.4118 19.9377 13.4348 19.8798 13.4348C19.8219 13.4348 19.7662 13.4118 19.724 13.3705C19.6838 13.3263 19.6602 13.2686 19.6572 13.2077C19.6792 13.0903 19.729 12.9804 19.8019 12.888L19.8631 12.7892L19.9243 12.888C20.0024 12.9769 20.0579 13.0848 20.0857 13.2019H20.0634ZM19.2231 14.1204C19.2236 14.1862 19.2116 14.2515 19.1877 14.3124C19.1639 14.3733 19.1286 14.4286 19.0839 14.475C18.9934 14.5681 18.8714 14.6202 18.7444 14.6202C18.6174 14.6202 18.4955 14.5681 18.4049 14.475C18.3603 14.4286 18.325 14.3733 18.3011 14.3124C18.2772 14.2515 18.2652 14.1862 18.2658 14.1204C18.315 13.8688 18.422 13.6334 18.5775 13.4345C18.6278 13.3636 18.6742 13.2899 18.7166 13.2136C18.7192 13.2099 18.7226 13.207 18.7264 13.205C18.7303 13.203 18.7346 13.2019 18.7389 13.2019C18.7432 13.2019 18.7475 13.203 18.7513 13.205C18.7552 13.207 18.7585 13.2099 18.7611 13.2136C18.8001 13.2775 18.8446 13.3531 18.9003 13.4345C19.0678 13.6298 19.1863 13.8655 19.2453 14.1204H19.2231ZM21.043 12.2834C21.0432 12.3438 21.032 12.4037 21.01 12.4595C20.988 12.5154 20.9557 12.5662 20.915 12.609C20.8736 12.6531 20.8242 12.6881 20.7698 12.7121C20.7153 12.736 20.6568 12.7484 20.5977 12.7485C20.5395 12.7483 20.4819 12.7358 20.4283 12.7118C20.3748 12.6879 20.3264 12.6529 20.2861 12.609C20.2453 12.5662 20.213 12.5154 20.191 12.4595C20.1691 12.4037 20.1579 12.3438 20.1581 12.2834C20.205 12.053 20.3042 11.8376 20.4475 11.6556C20.4935 11.5882 20.5362 11.5183 20.5755 11.4463C20.5811 11.4421 20.588 11.4398 20.5949 11.4398C20.6019 11.4398 20.6088 11.4421 20.6144 11.4463C20.6537 11.5183 20.6964 11.5882 20.7424 11.6556C20.8977 11.8341 21.0085 12.0497 21.0652 12.2834H21.043ZM22.5067 15.6958H17.008C17.008 15.6958 14.8431 22.5439 14.7429 22.7299C14.7088 22.8391 14.7005 22.9553 14.7186 23.0686C14.7366 23.1819 14.7805 23.2889 14.8466 23.3808C14.9126 23.4726 14.9989 23.5464 15.0981 23.596C15.1972 23.6456 15.3064 23.6696 15.4163 23.6658H24.026C24.6438 23.6658 24.9555 23.1717 24.7663 22.7299C24.6494 22.4683 22.5067 15.6958 22.5067 15.6958ZM21.2378 18.9745C21.2378 19.0458 21.2175 19.1155 21.1796 19.1747C21.1417 19.234 21.0878 19.2802 21.0247 19.3075C20.9617 19.3348 20.8923 19.3419 20.8254 19.328C20.7584 19.3141 20.697 19.2798 20.6487 19.2294C20.6005 19.179 20.5676 19.1147 20.5543 19.0448C20.541 18.9749 20.5478 18.9024 20.5739 18.8366C20.6 18.7707 20.6443 18.7144 20.701 18.6748C20.7577 18.6352 20.8245 18.6141 20.8927 18.6141C20.9833 18.6141 21.0702 18.6512 21.1347 18.7176C21.1993 18.7839 21.2363 18.8741 21.2378 18.9687V18.9745ZM20.5476 20.2127C20.552 20.2363 20.5512 20.2605 20.5456 20.2837C20.5399 20.307 20.5293 20.3286 20.5147 20.3471C20.5001 20.3655 20.4817 20.3804 20.461 20.3906C20.4402 20.4008 20.4175 20.4061 20.3946 20.4061C20.3716 20.4061 20.349 20.4008 20.3282 20.3906C20.3075 20.3804 20.2891 20.3655 20.2745 20.3471C20.2599 20.3286 20.2493 20.307 20.2436 20.2837C20.2379 20.2605 20.2372 20.2363 20.2415 20.2127C20.2484 20.1756 20.2674 20.142 20.2953 20.1179C20.3232 20.0938 20.3584 20.0806 20.3946 20.0806C20.4308 20.0806 20.4659 20.0938 20.4939 20.1179C20.5218 20.142 20.5408 20.1756 20.5476 20.2127ZM19.685 19.1838C19.685 19.266 19.6541 19.345 19.5989 19.4037C19.5438 19.4624 19.4688 19.4962 19.39 19.4977C19.3304 19.4989 19.2717 19.4814 19.2216 19.4476C19.1714 19.4139 19.132 19.3652 19.1084 19.308C19.0848 19.2507 19.0781 19.1875 19.089 19.1262C19.1 19.0649 19.1282 19.0084 19.17 18.9639C19.2118 18.9195 19.2653 18.889 19.3238 18.8764C19.3822 18.8638 19.4429 18.8697 19.4981 18.8932C19.5534 18.9168 19.6007 18.9571 19.6339 19.0088C19.6672 19.0605 19.685 19.1215 19.685 19.1838ZM19.2064 20.9743C19.2064 20.9897 19.2005 21.0045 19.1901 21.0154C19.1796 21.0263 19.1655 21.0324 19.1507 21.0324C19.136 21.0324 19.1218 21.0263 19.1114 21.0154C19.1009 21.0045 19.0951 20.9897 19.0951 20.9743C19.0951 20.9589 19.1009 20.9441 19.1114 20.9332C19.1218 20.9223 19.136 20.9161 19.1507 20.9161C19.1655 20.9161 19.1796 20.9223 19.1901 20.9332C19.2005 20.9441 19.2064 20.9589 19.2064 20.9743ZM18.8224 20.2592C18.8235 20.3046 18.8115 20.3492 18.7881 20.3873C18.7647 20.4255 18.7308 20.4554 18.691 20.4733C18.6511 20.4912 18.607 20.4962 18.5644 20.4876C18.5218 20.4791 18.4826 20.4573 18.4519 20.4253C18.4212 20.3932 18.4004 20.3523 18.3922 20.3078C18.384 20.2633 18.3888 20.2172 18.4059 20.1756C18.423 20.1339 18.4517 20.0986 18.4882 20.0741C18.5248 20.0496 18.5675 20.0372 18.6109 20.0383C18.6396 20.0383 18.668 20.0444 18.6945 20.0562C18.7209 20.068 18.7447 20.0853 18.7645 20.1071C18.7843 20.1289 18.7996 20.1546 18.8096 20.1828C18.8195 20.2109 18.8239 20.2409 18.8224 20.2709V20.2592ZM18.8224 21.7242C18.8231 21.7835 18.8125 21.8423 18.7913 21.8973C18.7701 21.9522 18.7387 22.0023 18.6988 22.0445C18.659 22.0866 18.6115 22.1201 18.5591 22.143C18.5067 22.1659 18.4506 22.1776 18.3938 22.1776C18.3331 22.1848 18.2715 22.1786 18.2132 22.1592C18.155 22.1399 18.1013 22.1079 18.0557 22.0654C18.01 22.0228 17.9735 21.9707 17.9485 21.9124C17.9236 21.8541 17.9106 21.791 17.9106 21.7271C17.9106 21.6632 17.9236 21.6001 17.9485 21.5418C17.9735 21.4835 18.01 21.4314 18.0557 21.3888C18.1013 21.3463 18.155 21.3143 18.2132 21.295C18.2715 21.2756 18.3331 21.2693 18.3938 21.2766C18.451 21.2765 18.5077 21.2885 18.5604 21.3117C18.6132 21.3349 18.6609 21.3689 18.7008 21.4118C18.7408 21.4546 18.7721 21.5053 18.793 21.5609C18.8139 21.6166 18.8238 21.6761 18.8224 21.7358V21.7242ZM0 10.4988H2.69924C3.74776 10.4592 4.79744 10.5293 5.83259 10.708C6.57451 10.8905 7.23901 11.3212 7.72484 11.9346C8.23003 12.5922 8.49267 13.4173 8.46505 14.2599C8.49555 15.0992 8.24128 15.9227 7.74711 16.5853C7.23606 17.2156 6.53923 17.6511 5.76581 17.8235C4.62908 18.0154 3.47717 18.0913 2.32636 18.0502H1.35797V24.6366H0V10.4988ZM1.35797 11.8765V16.6841L3.65094 16.7131C4.33966 16.749 5.02909 16.6585 5.68789 16.4457C6.09651 16.2778 6.44344 15.9786 6.67854 15.5912C6.91854 15.1999 7.0461 14.745 7.0461 14.2803C7.0461 13.8156 6.91854 13.3607 6.67854 12.9694C6.44716 12.5881 6.10625 12.2931 5.70459 12.1265C5.06483 11.9243 4.39632 11.8397 3.72885 11.8765H1.35797ZM31.4504 10.4988H34.1552C35.1792 10.4644 36.204 10.5306 37.2162 10.6964C37.9853 10.86 38.6771 11.2952 39.1752 11.9288C39.6891 12.5824 39.958 13.4088 39.9321 14.2541C39.9464 14.9661 39.7669 15.6676 39.4145 16.2771C39.0607 16.8682 38.5394 17.3295 37.923 17.5968C37.0713 17.9364 36.1626 18.0926 35.2516 18.056L40.1213 24.6308H38.4517L33.5875 18.0618H32.8362V24.6366H31.4504V10.4988ZM32.8362 11.8765V16.6841H35.1736C35.855 16.7181 36.5368 16.6276 37.1883 16.4167C37.6044 16.2486 37.9589 15.9475 38.2012 15.5563C38.4467 15.1623 38.5746 14.7009 38.5686 14.2309C38.5728 13.7711 38.4427 13.3209 38.1957 12.9403C37.964 12.5643 37.6253 12.2736 37.2273 12.109C36.58 11.9064 35.9041 11.8218 35.2293 11.8591L32.8362 11.8765ZM45.9818 10.4988H52.7716V11.8765H47.3063V16.312H52.7382V17.6898H47.3063V24.6657H45.9539L45.9818 10.4988ZM58.3148 10.4988H59.6728V19.0385C59.6607 19.6707 59.6793 20.3033 59.7284 20.9336C59.7774 21.4332 59.9395 21.9134 60.2015 22.3346C60.4863 22.7443 60.8705 23.0674 61.3146 23.2705C61.7936 23.5198 62.321 23.6511 62.8562 23.6542C63.3003 23.6545 63.7391 23.5533 64.1418 23.3577C64.5409 23.1657 64.893 22.8814 65.1714 22.5264C65.4604 22.1535 65.6674 21.7189 65.7781 21.2533C65.8969 20.5219 65.9435 19.7798 65.9172 19.0385V10.4988H67.2752V19.0326C67.3044 20.0667 67.1843 21.0995 66.919 22.0962C66.6583 22.9096 66.1624 23.6185 65.4998 24.1251C64.754 24.7253 63.8305 25.0339 62.8896 24.9971C61.9048 25.0236 60.9352 24.74 60.1069 24.1832C59.3538 23.6806 58.7972 22.9138 58.5374 22.0207C58.3288 21.0424 58.2446 20.0397 58.287 19.0385L58.3148 10.4988ZM73.13 24.6366L75.0056 10.4988H75.2894L80.7936 22.1253L86.2645 10.4988H86.4704L88.4183 24.6366H87.1104L85.7525 14.5332L80.955 24.6541H80.6044L75.7625 14.4576L74.4602 24.6541L73.13 24.6366ZM91.2233 0L94.6127 7.55725H93.8335L92.7204 5.07498H89.5871L88.474 7.55725H87.667L91.0842 0H91.2233ZM91.1342 1.58702L89.8876 4.3367H92.3865L91.1342 1.58702ZM95.8537 0H100V0.738285H96.5828V3.10429H99.9666V3.84257H96.5828V6.81896H99.9666V7.55725H95.8537V0Z" fill="#FCFCFC"/>
</svg>
