<svg width="20" height="20" viewBox="0 0 20 20" fill="none" xmlns="http://www.w3.org/2000/svg">
<path d="M15.885 16.8486C14.2564 18.4772 10.0857 16.9469 6.56939 13.4306C3.0531 9.91432 1.52283 5.74356 3.15142 4.11496L4.22373 3.04265C4.964 2.30238 6.18379 2.32195 6.9482 3.08636L8.6091 4.74727C9.37352 5.51168 9.39308 6.73147 8.65281 7.47174L8.42249 7.70206C8.02281 8.10174 7.98371 8.74651 8.35509 9.19656C8.71331 9.63066 9.0995 10.063 9.51823 10.4818C9.93696 10.9005 10.3693 11.2867 10.8034 11.6449C11.2535 12.0163 11.8983 11.9772 12.2979 11.5775L12.5283 11.3472C13.2685 10.6069 14.4883 10.6265 15.2527 11.3909L16.9136 13.0518C17.6781 13.8162 17.6976 15.036 16.9573 15.7763L15.885 16.8486Z" fill="#FFAF06" stroke="#FFAF06" stroke-width="1.25"/>
</svg>
